<?xml version="1.0" encoding="UTF-8"?>
<svg id="Layer_1" data-name="Layer 1" xmlns="http://www.w3.org/2000/svg" xmlns:xlink="http://www.w3.org/1999/xlink" viewBox="0 0 151.49 144.16">
  <defs>
    <style>
      .cls-1 {
        fill: url(#linear-gradient);
      }

      .cls-1, .cls-2, .cls-3, .cls-4, .cls-5, .cls-6, .cls-7, .cls-8 {
        stroke-width: 0px;
      }

      .cls-2 {
        fill: url(#New_Gradient_Swatch_2-2);
      }

      .cls-3 {
        fill: url(#New_Gradient_Swatch_2);
      }

      .cls-4 {
        fill: #fff;
      }

      .cls-5 {
        fill: url(#New_Gradient_Swatch_1);
      }

      .cls-6 {
        fill: url(#New_Gradient_Swatch_1-2);
      }

      .cls-7 {
        fill: url(#New_Gradient_Swatch_2-3);
      }

      .cls-8 {
        fill: url(#New_Gradient_Swatch_2-4);
      }
    </style>
    <linearGradient id="New_Gradient_Swatch_1" data-name="New Gradient Swatch 1" x1="115.33" y1="38.05" x2="115.33" y2="0" gradientUnits="userSpaceOnUse">
      <stop offset="0" stop-color="#0c376c"/>
      <stop offset="1" stop-color="#0b2b54"/>
    </linearGradient>
    <linearGradient id="New_Gradient_Swatch_1-2" data-name="New Gradient Swatch 1" x1="36.09" x2="36.09" y2="0" xlink:href="#New_Gradient_Swatch_1"/>
    <linearGradient id="New_Gradient_Swatch_2" data-name="New Gradient Swatch 2" x1="113.62" y1="144.16" x2="113.62" y2="21.62" gradientUnits="userSpaceOnUse">
      <stop offset="0" stop-color="#105e96"/>
      <stop offset="1" stop-color="#0b3968"/>
    </linearGradient>
    <linearGradient id="New_Gradient_Swatch_2-2" data-name="New Gradient Swatch 2" x1="159.87" y1="144.16" x2="159.87" y2="21.62" gradientTransform="translate(197.74) rotate(-180) scale(1 -1)" xlink:href="#New_Gradient_Swatch_2"/>
    <linearGradient id="linear-gradient" x1="75.74" y1="70.15" x2="75.74" y2="23.62" gradientUnits="userSpaceOnUse">
      <stop offset="0" stop-color="#0d4679"/>
      <stop offset="1" stop-color="#0b3a69"/>
    </linearGradient>
    <linearGradient id="New_Gradient_Swatch_2-3" data-name="New Gradient Swatch 2" x1="79.44" y1="139.56" x2="79.44" y2="83.94" xlink:href="#New_Gradient_Swatch_2"/>
    <linearGradient id="New_Gradient_Swatch_2-4" data-name="New Gradient Swatch 2" x1="72.05" y1="139.56" x2="72.05" y2="83.94" xlink:href="#New_Gradient_Swatch_2"/>
  </defs>
  <circle class="cls-5" cx="115.33" cy="19.03" r="19.03"/>
  <circle class="cls-6" cx="36.09" cy="19.03" r="19.03"/>
  <circle class="cls-4" cx="75.74" cy="46.89" r="18.27"/>
  <path class="cls-3" d="m75.74,21.63c26.73-.51,24.57,24.52,24.57,24.52h11.57v4.86h7.94v-4.7h11.29c9.3,6.69,11.81,17.88,11.81,17.88,0,0,6.59,20.8,8.05,31.26,1.78,10.87-1.46,13.8-3.76,16.2s-25.82,16.2-25.82,16.2l.1,9.83c-1.88,4.29-7.32,6.48-7.32,6.48l-11.81-55.3c-3.55-12.18-11.81-15.31-14.43-15.68l-8.96.03.08,5.61h-3.31v-13.51c25.68-1.38,23.02-36.18,0-36.38v-7.3Z"/>
  <path class="cls-2" d="m75.74,21.63c-26.73-.51-24.57,24.52-24.57,24.52h-11.57s0,4.86,0,4.86h-7.94v-4.7s-11.29,0-11.29,0c-9.3,6.69-11.81,17.88-11.81,17.88,0,0-6.59,20.8-8.05,31.26-1.78,10.87,1.46,13.8,3.76,16.2s25.82,16.2,25.82,16.2l-.1,9.83c1.88,4.29,7.32,6.48,7.32,6.48l11.81-55.3c3.55-12.18,11.81-15.31,14.43-15.68,1.78,0,8.96.03,8.96.03l-.08,5.61h3.31s0-13.51,0-13.51c-25.23-1.59-23.66-35.5,0-36.38v-7.3Z"/>
  <path class="cls-1" d="m75.74,28.62c10.09,0,18.27,8.18,18.27,18.27s-8.18,18.27-18.27,18.27-18.27-8.18-18.27-18.27,8.18-18.27,18.27-18.27m0-5c-12.83,0-23.27,10.44-23.27,23.27s10.44,23.27,23.27,23.27,23.27-10.44,23.27-23.27-10.44-23.27-23.27-23.27h0Z"/>
  <path class="cls-7" d="m75.74,139.56s5.61-12.23,7.39-31.15c0-9.62-2.55-24.46-2.55-24.46h-4.84"/>
  <path class="cls-8" d="m75.74,139.56s-5.61-12.23-7.39-31.15c0-9.62,2.55-24.46,2.55-24.46h4.84"/>
  <path class="cls-4" d="m115.33,112.38s5.61-12.23,7.39-31.15c0-9.62-2.55-24.46-2.55-24.46h-4.84"/>
  <path class="cls-4" d="m115.33,112.38s-5.61-12.23-7.39-31.15c0-9.62,2.55-24.46,2.55-24.46h4.84"/>
  <path class="cls-4" d="m36.09,112.38s5.61-12.23,7.39-31.15c0-9.62-2.55-24.46-2.55-24.46h-4.84"/>
  <path class="cls-4" d="m36.09,112.38s-5.61-12.23-7.39-31.15c0-9.62,2.55-24.46,2.55-24.46h4.84"/>
</svg>